<?xml version="1.0" encoding="utf-8"?>
<!-- Generator: Adobe Illustrator 27.0.0, SVG Export Plug-In . SVG Version: 6.00 Build 0)  -->
<svg version="1.1" id="Layer_1" xmlns="http://www.w3.org/2000/svg" xmlns:xlink="http://www.w3.org/1999/xlink" x="0px" y="0px"
	 viewBox="0 0 5760 1000" style="enable-background:new 0 0 5760 1000;" xml:space="preserve">
<style type="text/css">
	.st0{fill:#BBFDFF;}
</style>
<g>
	<path class="st0" d="M1919.88,999.56c0.23-1.4,0.11-542.54,0.11-586.19c0-56.27,0.46-123.13,0-179.37
		c-52.32,33.03-89.15,109.68-124.07,158.98c-29.61,41.8-87.61,110.63-145.61,74.8c-20.82-12.86-29.64-38.17-36.98-61.52
		c-17.05-54.21-20.87-154.11-98.28-153.54c-100.33,0.74-142.79,173.26-196.71,234.72c-46.01,52.44-126.31,67.21-193.14,52.87
		c-47.83-10.26-91.51-36.71-124.48-72.62c-52.18-56.84-47.17-183.88-140.78-195.25c-54.29-6.6-84.81,36.74-117.68,71.63
		C632.81,460.22,531.8,639.74,341.43,584.03c-99.88-29.23-141.98-105.6-176.47-195.29C141.14,326.77,85.17,207.27,0,238.41v761.15
		C0,999.56,1902.78,999.56,1919.88,999.56z"/>
</g>
<g>
	<path class="st0" d="M3839.88,999.56c0.23-1.41,0.12-545.6,0.12-589.5c0-56.59,0.46-119.51,0-176.06
		c-52.32,33.22-89.15,105.97-124.07,155.55c-29.61,42.04-87.61,111.26-145.61,75.22c-20.82-12.94-29.64-38.39-36.98-61.87
		c-17.05-54.52-20.87-154.98-98.28-154.4c-100.33,0.74-142.79,174.24-196.71,236.05c-46.01,52.73-126.31,67.59-193.14,53.17
		c-47.83-10.32-91.51-36.91-124.48-73.03c-52.18-57.16-47.17-184.92-140.78-196.35c-54.29-6.63-84.81,36.94-117.68,72.03
		c-109.45,116.81-210.46,297.35-400.82,241.31c-99.88-29.4-141.98-106.19-176.47-196.4c-23.83-62.31-79.79-182.6-164.96-151.28
		v765.56C1920,999.56,3822.78,999.56,3839.88,999.56z"/>
</g>
<g>
	<path class="st0" d="M5759.88,999.56c0.23-1.41,0.12-545.6,0.12-589.5c0-56.59,0.46-124.27,0-180.82
		c-52.32,33.22-89.15,110.74-124.07,160.32c-29.61,42.04-87.61,111.26-145.61,75.22c-20.82-12.94-29.64-38.39-36.98-61.87
		c-17.05-54.52-20.87-154.98-98.28-154.4c-100.33,0.74-142.79,174.24-196.71,236.05c-46.01,52.73-126.31,67.59-193.14,53.17
		c-47.83-10.32-91.51-36.91-124.48-73.03c-52.18-57.16-47.17-184.92-140.78-196.35c-54.29-6.63-84.81,36.94-117.68,72.03
		c-109.45,116.81-210.46,297.35-400.82,241.31c-99.88-29.4-141.98-106.19-176.47-196.4c-23.83-62.31-79.79-182.6-164.96-151.28
		v765.56C3840,999.56,5742.78,999.56,5759.88,999.56z"/>
</g>
</svg>
