<?xml version="1.0" encoding="utf-8"?>
<!-- Generator: Adobe Illustrator 27.0.0, SVG Export Plug-In . SVG Version: 6.00 Build 0)  -->
<svg version="1.1" id="Layer_1" xmlns="http://www.w3.org/2000/svg" xmlns:xlink="http://www.w3.org/1999/xlink" x="0px" y="0px"
	 viewBox="0 0 1920 1000" style="enable-background:new 0 0 1920 1000;" xml:space="preserve">
<style type="text/css">
	.st0{fill:#BBFDFF;}
</style>
<g>
	<path class="st0" d="M1919.88,1000c0.23-1.4,0.11-542.54,0.11-586.19c0-56.27,0.46-123.57,0-179.81
		c-52.32,33.03-89.15,110.11-124.07,159.42c-29.61,41.8-87.61,110.63-145.61,74.8c-20.82-12.86-29.64-38.17-36.98-61.52
		c-17.05-54.21-20.87-154.11-98.28-153.54c-100.33,0.74-142.79,173.26-196.71,234.72c-46.01,52.44-126.31,67.21-193.14,52.87
		c-47.83-10.26-91.51-36.71-124.48-72.62c-52.18-56.84-47.17-183.88-140.78-195.25c-54.29-6.6-84.81,36.74-117.68,71.63
		C632.81,460.66,531.8,640.18,341.43,584.46c-99.88-29.23-141.98-105.6-176.47-195.29C141.14,327.21,85.17,207.71,0,238.85V1000
		C0,1000,1902.78,1000,1919.88,1000z"/>
</g>
</svg>
