<svg width="70" height="70" viewBox="0 0 70 70" fill="none" xmlns="http://www.w3.org/2000/svg">
<g clip-path="url(#clip0_1991_545)">
<path d="M54.495 25.2561C55.902 24.0731 57.946 24.8501 59.395 25.5641C66.605 29.5331 60.83 40.3061 54.026 40.8171C41.489 42.3641 24.626 34.8881 17.423 24.4581C16.478 22.9601 15.743 21.2941 15.435 19.5021C14.462 14.2101 17.647 7.55311 23.527 7.14711C29.421 6.59411 33.873 11.8371 33.439 17.5071C33.243 19.2641 32.774 21.3151 31.003 22.1691C29.085 22.9601 27.104 21.2451 26.964 19.3551C26.656 15.6241 29.876 12.5651 33.257 11.6971C38.409 10.3741 41.86 14.7491 40.845 19.6491C40.621 20.9301 40.18 22.3791 39.004 23.1281C38.192 23.5831 37.079 23.5761 36.379 22.9041C35.119 21.3081 36.323 18.1021 37.478 16.7021C39.102 14.5041 42.497 14.1121 44.499 16.0091C46.459 17.8361 46.522 21.1121 45.598 23.4011C45.57 23.3941 45.549 23.3591 45.556 23.3311C45.759 22.4911 45.864 21.6371 45.99 20.7901C46.193 19.1031 45.654 17.2831 44.387 16.1211C42.448 14.3291 39.2 14.7281 37.667 16.8561C36.617 18.1791 36.078 19.9151 36.183 21.5951C36.211 22.0081 36.323 22.4071 36.603 22.6661C37.17 23.2121 38.157 23.1981 38.815 22.8131C40.523 21.5461 40.607 19.0121 40.53 17.0521C40.292 13.4611 36.785 11.1371 33.369 12.1661C30.254 12.9641 27.181 15.8971 27.496 19.2851C27.622 20.8601 29.232 22.2741 30.772 21.6371C32.221 20.9371 32.69 18.9701 32.816 17.4651C33.068 12.2851 28.903 7.65811 23.632 8.32311C18.655 8.95311 15.764 14.6371 16.464 19.3341C16.947 22.6241 18.963 25.5501 21.315 27.9791C28.602 35.2311 38.64 39.6691 48.846 40.6421C52.185 40.8311 55.93 40.8241 58.618 38.5631C62.587 35.5251 64.666 28.4201 59.36 25.6201C57.904 24.8081 55.818 24.2341 54.488 25.2631L54.495 25.2561Z" fill="#231F20"/>
<path d="M9.96803 45.381C9.44303 45.276 9.07203 45.024 8.85503 44.632C8.63803 44.24 8.52603 43.75 8.53303 43.176C8.53303 42.595 8.60303 41.979 8.74303 41.321C8.82703 40.894 8.93903 40.432 9.07203 39.935C9.20503 39.438 9.35903 38.927 9.53403 38.388C9.26103 38.409 9.00203 38.423 8.74303 38.43C8.48403 38.43 8.23203 38.43 7.98703 38.402C7.82603 38.367 7.65803 38.311 7.46903 38.227C7.28003 38.143 7.12603 38.045 7.00703 37.933C6.88103 37.821 6.83203 37.709 6.85303 37.597C6.88103 37.478 6.98603 37.38 7.17503 37.317C7.30803 37.268 7.51103 37.233 7.77703 37.212C8.04303 37.191 8.39303 37.17 8.82703 37.156C8.84103 37.156 8.85503 37.156 8.88303 37.156C8.89703 37.156 8.90403 37.17 8.91803 37.184C8.91103 37.233 8.82703 37.303 8.66603 37.401C8.50503 37.499 8.42103 37.576 8.40703 37.632C8.40703 37.66 8.41403 37.674 8.45603 37.681C8.49803 37.688 8.56803 37.681 8.68703 37.674C8.86903 37.646 9.05803 37.618 9.24703 37.59C9.43603 37.562 9.63203 37.527 9.82803 37.492C10.115 36.638 10.423 35.777 10.745 34.923C11.067 34.069 11.389 33.257 11.711 32.487C12.033 31.717 12.32 31.059 12.572 30.499C12.467 30.569 12.362 30.681 12.243 30.849C12.124 31.017 12.012 31.171 11.907 31.318C11.802 31.465 11.711 31.528 11.641 31.514C11.613 31.514 11.606 31.479 11.62 31.43C11.634 31.381 11.69 31.262 11.809 31.066C11.928 30.87 12.068 30.653 12.25 30.408C12.425 30.163 12.614 29.925 12.81 29.694C13.006 29.463 13.188 29.274 13.363 29.127C13.538 28.987 13.678 28.924 13.79 28.945C13.909 28.973 14.042 29.043 14.182 29.176C14.322 29.309 14.441 29.442 14.546 29.582C14.651 29.722 14.693 29.834 14.679 29.904C14.672 29.939 14.658 29.967 14.644 29.974C14.028 30.639 13.384 31.556 12.726 32.739C12.068 33.922 11.452 35.385 10.878 37.121C10.857 37.156 10.843 37.205 10.829 37.261C11.578 37.086 12.348 36.869 13.146 36.617C13.944 36.365 14.707 36.085 15.456 35.784C16.198 35.476 16.877 35.147 17.486 34.797C18.102 34.447 18.599 34.069 18.991 33.684C19.383 33.292 19.621 32.893 19.705 32.473C19.796 32.018 19.677 31.598 19.355 31.199C19.026 30.8 18.564 30.436 17.955 30.1C17.346 29.764 16.674 29.47 15.918 29.218C15.169 28.966 14.413 28.756 13.657 28.602C13.006 28.469 12.397 28.364 11.823 28.294C11.249 28.224 10.759 28.147 10.374 28.063C10.108 28.007 9.98203 27.937 9.99603 27.853C10.003 27.804 10.087 27.748 10.241 27.692C10.899 27.468 11.494 27.349 12.033 27.335C12.572 27.321 13.062 27.356 13.517 27.447C13.972 27.538 14.511 27.699 15.141 27.923C15.771 28.147 16.408 28.42 17.066 28.742C17.717 29.064 18.319 29.428 18.858 29.82C19.397 30.219 19.824 30.639 20.125 31.094C20.426 31.549 20.531 31.997 20.44 32.466C20.328 33.019 20.006 33.593 19.481 34.188C18.949 34.783 18.221 35.371 17.29 35.945C16.898 36.197 16.338 36.47 15.624 36.778C14.903 37.086 14.105 37.373 13.223 37.646C12.341 37.919 11.445 38.129 10.542 38.269C10.472 38.549 10.402 38.836 10.339 39.123C10.269 39.417 10.213 39.704 10.157 39.984C9.91903 41.146 9.79303 42.077 9.77203 42.798C9.75103 43.519 9.82803 44.037 9.98203 44.38C10.143 44.716 10.36 44.919 10.647 44.975C10.857 45.017 11.039 45.017 11.193 44.961C11.347 44.912 11.466 44.891 11.536 44.912C11.599 44.926 11.62 44.961 11.606 45.024C11.606 45.045 11.536 45.108 11.417 45.206C11.298 45.304 11.116 45.374 10.878 45.43C10.64 45.486 10.339 45.472 9.98903 45.402L9.96803 45.381Z" fill="black"/>
<path d="M20.93 43.932C20.72 43.89 20.545 43.75 20.398 43.505C20.251 43.26 20.209 42.987 20.272 42.672C20.391 42.077 20.538 41.482 20.699 40.901C20.86 40.32 21.021 39.795 21.168 39.34C21.315 38.885 21.427 38.542 21.497 38.332C21.273 38.822 21.014 39.305 20.727 39.774C20.44 40.243 20.16 40.691 19.887 41.097C19.614 41.51 19.376 41.846 19.18 42.119C18.984 42.392 18.865 42.567 18.823 42.644C18.746 42.77 18.627 42.812 18.473 42.784C18.354 42.756 18.221 42.693 18.074 42.588C17.927 42.483 17.808 42.364 17.717 42.238C17.619 42.112 17.577 42.007 17.577 41.93C17.577 41.867 17.584 41.797 17.605 41.713L17.654 41.468C17.766 40.908 17.913 40.376 18.095 39.865C18.277 39.361 18.445 38.857 18.613 38.36C18.683 38.136 18.774 37.87 18.886 37.576C18.998 37.282 19.082 36.995 19.138 36.715C19.166 36.596 19.18 36.47 19.194 36.351C19.208 36.232 19.194 36.127 19.18 36.036C19.152 35.931 19.047 35.826 18.858 35.735C18.676 35.637 18.515 35.581 18.382 35.553C18.235 35.525 18.172 35.469 18.186 35.399C18.214 35.266 18.361 35.21 18.62 35.238C18.858 35.259 19.075 35.28 19.278 35.287C19.481 35.294 19.67 35.322 19.852 35.357C20.02 35.392 20.16 35.441 20.251 35.497C20.349 35.553 20.384 35.63 20.363 35.728C20.265 36.19 20.111 36.743 19.894 37.38C19.677 38.017 19.453 38.668 19.222 39.333C18.991 39.998 18.823 40.607 18.704 41.153C18.669 41.321 18.641 41.489 18.62 41.643C18.599 41.797 18.62 41.881 18.683 41.895C18.767 41.909 18.914 41.804 19.11 41.566C19.313 41.314 19.551 40.978 19.824 40.544C20.097 40.117 20.37 39.655 20.65 39.158C20.93 38.661 21.189 38.185 21.42 37.723C21.651 37.261 21.84 36.876 21.98 36.561C22.008 36.505 22.057 36.484 22.148 36.498C22.281 36.526 22.421 36.624 22.554 36.799C22.687 36.974 22.778 37.156 22.813 37.338C22.75 37.478 22.645 37.737 22.505 38.115C22.365 38.493 22.211 38.92 22.05 39.396C21.889 39.872 21.742 40.341 21.609 40.803C21.476 41.265 21.378 41.657 21.315 41.972C21.238 42.35 21.231 42.581 21.294 42.665C21.357 42.749 21.434 42.798 21.518 42.812C21.616 42.833 21.749 42.77 21.91 42.623C22.071 42.476 22.246 42.294 22.435 42.063C22.624 41.832 22.806 41.608 22.995 41.384C23.177 41.16 23.345 40.978 23.478 40.824C23.618 40.677 23.716 40.607 23.779 40.621C23.828 40.628 23.849 40.67 23.835 40.726C23.828 40.761 23.793 40.824 23.737 40.915C23.667 41.027 23.541 41.209 23.366 41.461C23.191 41.713 22.995 41.986 22.771 42.273C22.547 42.567 22.316 42.84 22.085 43.099C21.854 43.358 21.63 43.568 21.42 43.729C21.21 43.89 21.035 43.96 20.902 43.932H20.93Z" fill="black"/>
<path d="M26.222 43.981C25.767 43.89 25.515 43.575 25.459 43.036C25.403 42.497 25.459 41.853 25.606 41.111C25.69 40.705 25.781 40.313 25.886 39.935C25.991 39.557 26.075 39.242 26.138 38.983C25.949 38.92 25.767 38.843 25.606 38.752C25.438 38.661 25.312 38.577 25.228 38.493C25.2 38.577 25.116 38.738 24.976 38.983C24.836 39.228 24.675 39.508 24.486 39.83C24.297 40.152 24.108 40.46 23.905 40.761C23.702 41.062 23.52 41.307 23.352 41.496C23.184 41.685 23.051 41.769 22.96 41.748C22.911 41.741 22.897 41.699 22.911 41.622C22.932 41.524 23.002 41.398 23.121 41.244C23.471 40.796 23.793 40.327 24.094 39.837C24.395 39.354 24.682 38.843 24.955 38.318C24.843 38.241 24.773 38.136 24.745 37.996C24.717 37.856 24.717 37.709 24.745 37.548C24.836 37.107 24.969 36.764 25.158 36.505C25.34 36.253 25.529 36.071 25.718 35.959C25.907 35.847 26.04 35.805 26.131 35.826C26.278 35.854 26.327 35.994 26.278 36.239C26.25 36.358 26.187 36.54 26.075 36.778C25.963 37.016 25.837 37.254 25.697 37.499C25.557 37.744 25.445 37.94 25.347 38.087C25.473 38.213 25.578 38.29 25.662 38.304C25.781 38.332 25.921 38.276 26.068 38.15C26.215 38.024 26.39 37.898 26.586 37.779C26.782 37.66 27.006 37.625 27.265 37.681C27.398 37.709 27.51 37.751 27.601 37.8C27.692 37.849 27.734 37.912 27.713 37.982L27.699 38.038C27.517 38.318 27.342 38.696 27.181 39.179C27.02 39.662 26.887 40.152 26.782 40.656C26.691 41.097 26.635 41.51 26.607 41.909C26.579 42.301 26.593 42.63 26.649 42.882C26.705 43.134 26.81 43.274 26.957 43.309C27.104 43.344 27.258 43.288 27.426 43.155C27.594 43.022 27.748 42.875 27.888 42.714C28.028 42.553 28.126 42.434 28.182 42.357C28.539 41.93 28.756 41.657 28.847 41.531C28.938 41.405 29.029 41.349 29.127 41.37C29.162 41.377 29.176 41.405 29.169 41.454C29.169 41.482 29.141 41.538 29.092 41.629C28.861 42 28.595 42.385 28.294 42.777C27.993 43.169 27.664 43.484 27.307 43.729C26.95 43.974 26.593 44.058 26.222 43.988V43.981Z" fill="black"/>
<path d="M29.7291 45.4019C29.3161 45.3179 29.0221 45.1149 28.8471 44.7999C28.6721 44.4849 28.5951 44.1069 28.6021 43.6729C28.6021 43.2319 28.6581 42.8049 28.7421 42.3779C28.8051 42.0839 28.8681 41.8109 28.9521 41.5519C29.0291 41.2929 29.0991 41.0689 29.1691 40.8799C29.3301 40.3899 29.5121 39.9279 29.7011 39.4799C29.8901 39.0319 30.0721 38.6609 30.2261 38.3459C30.3801 38.0309 30.4851 37.8349 30.5341 37.7439C30.6181 37.5829 30.7231 37.5129 30.8631 37.5409C31.0031 37.5689 31.1291 37.6879 31.2691 37.8979C31.4021 38.1079 31.5001 38.2759 31.5491 38.4019C31.8151 38.5419 32.0671 38.7029 32.3121 38.8709C32.5571 39.0389 32.7531 39.2139 32.9071 39.3819C33.0541 39.5499 33.1171 39.7179 33.0821 39.8789C33.0191 40.1799 32.8301 40.4599 32.5081 40.7189C32.1861 40.9779 31.8081 41.1879 31.3671 41.3629C30.9261 41.5379 30.4851 41.6779 30.0441 41.7829C29.9461 42.0699 29.8691 42.3569 29.8131 42.6509C29.7151 43.1409 29.6871 43.5819 29.7361 43.9739C29.7851 44.3659 29.9531 44.5899 30.2471 44.6529C30.5061 44.7019 30.7721 44.6669 31.0451 44.5269C31.3181 44.3939 31.5911 44.2049 31.8571 43.9669C32.1231 43.7289 32.3681 43.4839 32.5921 43.2319C32.8161 42.9799 32.9911 42.7629 33.1171 42.5809C33.1591 42.5109 33.2221 42.4899 33.3061 42.5039C33.3551 42.5109 33.3691 42.5739 33.3481 42.6719C33.3271 42.7699 33.2081 42.9729 32.9981 43.2599C32.7951 43.5189 32.5851 43.7709 32.3821 44.0019C32.1791 44.2329 31.9831 44.4289 31.7941 44.5969C31.5281 44.8209 31.2271 45.0309 30.8701 45.2269C30.5131 45.4229 30.1491 45.4789 29.7571 45.4019H29.7291ZM30.1911 41.2789C30.6671 41.1319 31.1011 40.9359 31.5071 40.6769C31.9061 40.4249 32.1511 40.1029 32.2281 39.7249C32.2561 39.5919 32.1861 39.4309 32.0111 39.2489C31.8361 39.0669 31.6261 38.8989 31.3811 38.7519C31.1571 39.1159 30.9471 39.5009 30.7511 39.9209C30.5551 40.3409 30.3731 40.7959 30.1981 41.2789H30.1911Z" fill="black"/>
<path d="M34.699 62.251C34.489 62.251 34.293 62.167 34.118 62.006C33.943 61.845 33.859 61.698 33.859 61.572C33.859 61.551 33.859 61.537 33.866 61.516C33.866 61.495 33.88 61.474 33.887 61.46C33.887 61.439 33.887 61.432 33.901 61.432H33.887C33.81 61.432 33.747 61.411 33.698 61.376C33.341 61.124 33.082 60.83 32.928 60.494C32.774 60.158 32.697 59.78 32.697 59.36C32.697 58.793 32.823 58.177 33.075 57.512C33.327 56.847 33.656 56.175 34.069 55.496C34.482 54.817 34.93 54.159 35.42 53.529C35.91 52.899 36.393 52.332 36.876 51.821C36.883 51.751 36.89 51.688 36.89 51.632V51.443C36.89 51.016 36.869 50.638 36.834 50.302C36.792 49.966 36.75 49.679 36.687 49.441C36.4 49.791 36.155 50.113 35.959 50.414C35.763 50.715 35.581 51.023 35.399 51.331C35.217 51.646 35.007 52.01 34.755 52.423C34.629 52.626 34.468 52.871 34.272 53.151C34.076 53.438 33.852 53.718 33.614 53.991C33.369 54.264 33.117 54.495 32.844 54.677C32.571 54.859 32.291 54.95 32.004 54.95C31.668 54.95 31.36 54.859 31.08 54.684C30.807 54.502 30.59 54.264 30.429 53.963C30.268 53.662 30.191 53.333 30.191 52.976C30.191 52.171 30.401 51.387 30.821 50.624C31.241 49.861 31.787 49.168 32.452 48.538H32.018C31.843 48.538 31.724 48.524 31.654 48.496C31.584 48.468 31.556 48.44 31.556 48.412C31.556 48.377 31.591 48.342 31.675 48.314C31.752 48.286 31.836 48.272 31.934 48.272C32.011 48.272 32.123 48.272 32.27 48.265C32.417 48.258 32.592 48.251 32.795 48.244C33.355 47.754 33.957 47.32 34.608 46.956C35.252 46.592 35.903 46.305 36.554 46.102C37.205 45.899 37.814 45.801 38.388 45.801C38.584 45.801 38.766 45.815 38.934 45.85C39.102 45.885 39.263 45.927 39.417 45.976C39.501 46.004 39.585 46.095 39.655 46.235C39.725 46.375 39.781 46.529 39.823 46.69C39.865 46.851 39.879 46.97 39.879 47.061V47.117C39.774 47.271 39.564 47.411 39.249 47.537C38.934 47.663 38.556 47.775 38.101 47.88C37.646 47.985 37.17 48.069 36.659 48.146C36.148 48.223 35.63 48.286 35.112 48.342C34.594 48.398 34.111 48.44 33.67 48.482C33.166 48.916 32.725 49.392 32.333 49.917C31.948 50.435 31.647 50.967 31.43 51.513C31.213 52.052 31.101 52.584 31.101 53.095C31.101 53.396 31.171 53.641 31.304 53.837C31.437 54.033 31.654 54.124 31.955 54.124C32.214 54.124 32.473 54.068 32.732 53.956C32.991 53.844 33.208 53.683 33.39 53.473C33.677 53.151 33.978 52.78 34.279 52.346C34.58 51.912 34.874 51.457 35.154 50.981C35.434 50.505 35.679 50.05 35.896 49.602C36.106 49.154 36.26 48.762 36.358 48.412C36.358 48.391 36.379 48.384 36.428 48.384C36.505 48.384 36.617 48.405 36.771 48.447C36.918 48.489 37.058 48.559 37.184 48.643C37.31 48.727 37.38 48.839 37.401 48.979C37.436 49.224 37.471 49.476 37.485 49.742C37.506 50.008 37.513 50.288 37.513 50.589C37.513 50.687 37.513 50.778 37.506 50.869C37.499 50.96 37.499 51.058 37.499 51.163C38.108 50.575 38.605 50.169 38.99 49.959C39.109 49.91 39.2 49.889 39.263 49.889C39.347 49.889 39.396 49.917 39.396 49.973C39.396 50.001 39.382 50.029 39.354 50.057C39.046 50.281 38.731 50.526 38.409 50.799C38.087 51.072 37.779 51.359 37.464 51.667C37.408 52.479 37.303 53.312 37.156 54.173C37.009 55.034 36.841 55.874 36.652 56.686C36.456 57.505 36.267 58.254 36.071 58.933C35.875 59.612 35.707 60.186 35.546 60.641C35.385 61.096 35.273 61.404 35.196 61.544C35.091 61.726 35.007 61.887 34.958 62.027C34.902 62.167 34.811 62.237 34.678 62.237L34.699 62.251ZM34.076 61.033C34.377 60.382 34.671 59.696 34.965 58.961C35.259 58.226 35.539 57.477 35.798 56.721C36.057 55.965 36.281 55.209 36.456 54.467C36.638 53.725 36.757 53.018 36.827 52.353C36.337 52.885 35.875 53.445 35.441 54.04C35.007 54.635 34.629 55.23 34.293 55.832C33.957 56.434 33.698 57.015 33.509 57.582C33.32 58.149 33.229 58.674 33.229 59.171C33.229 59.556 33.292 59.913 33.425 60.228C33.558 60.55 33.768 60.816 34.069 61.04L34.076 61.033ZM34.076 48.146C34.587 48.097 35.119 48.034 35.679 47.95C36.232 47.866 36.764 47.768 37.268 47.663C37.772 47.558 38.199 47.425 38.556 47.278C38.913 47.131 39.144 46.97 39.249 46.788C38.948 46.641 38.591 46.571 38.178 46.571C37.464 46.571 36.75 46.718 36.05 47.005C35.35 47.292 34.685 47.677 34.076 48.153V48.146Z" fill="black"/>
<path d="M42.28 56.3501C42.175 56.3501 42.056 56.3081 41.93 56.2241C41.804 56.1401 41.72 56.0561 41.671 55.9581C41.671 55.7341 41.699 55.4331 41.755 55.0481C41.811 54.6631 41.881 54.2641 41.951 53.8511C42.021 53.4381 42.091 53.0881 42.147 52.8011C41.972 53.0741 41.776 53.3681 41.552 53.6831C41.328 54.0051 41.104 54.2991 40.873 54.5721C40.642 54.8451 40.404 55.0761 40.173 55.2511C39.935 55.4331 39.718 55.5171 39.515 55.5171C39.312 55.5171 39.151 55.4471 39.039 55.3071C38.92 55.1671 38.864 55.0061 38.864 54.8241C38.864 54.7751 38.871 54.7121 38.892 54.6351C38.976 54.1871 39.151 53.7741 39.403 53.3821C39.655 52.9901 39.956 52.6471 40.285 52.3461C40.621 52.0451 40.95 51.8071 41.279 51.6391C41.608 51.4641 41.888 51.3801 42.119 51.3801C42.294 51.3801 42.462 51.4151 42.616 51.4921C42.777 51.5621 42.931 51.6811 43.071 51.8491C43.099 51.8771 43.113 51.9121 43.113 51.9471C43.113 51.9961 43.085 52.0451 43.029 52.0941C42.959 52.3251 42.889 52.6051 42.819 52.9271C42.749 53.2491 42.679 53.5851 42.616 53.9281C42.553 54.2711 42.504 54.5861 42.462 54.8801C42.427 55.1671 42.406 55.3911 42.406 55.5451C42.406 55.6501 42.42 55.7061 42.448 55.7061C42.525 55.7061 42.623 55.6221 42.742 55.4611C42.861 55.3001 42.98 55.1111 43.099 54.8941C43.218 54.6841 43.316 54.4951 43.407 54.3271C43.498 54.1661 43.554 54.0821 43.575 54.0821C43.603 54.0821 43.617 54.1171 43.617 54.2011C43.617 54.3621 43.561 54.5651 43.456 54.8101C43.351 55.0551 43.225 55.2931 43.071 55.5241C42.924 55.7621 42.77 55.9581 42.623 56.1191C42.476 56.2801 42.357 56.3571 42.266 56.3571L42.28 56.3501ZM39.627 54.9851C39.76 54.9851 39.935 54.9081 40.145 54.7541C40.355 54.6001 40.572 54.4041 40.796 54.1591C41.02 53.9211 41.244 53.6621 41.461 53.3891C41.678 53.1161 41.867 52.8571 42.028 52.6121C42.189 52.3671 42.301 52.1641 42.371 52.0101C42.175 52.0101 41.958 52.0801 41.706 52.2201C41.454 52.3601 41.202 52.5421 40.936 52.7591C40.677 52.9761 40.432 53.2141 40.208 53.4731C39.984 53.7321 39.809 53.9771 39.669 54.2221C39.536 54.4671 39.466 54.6701 39.466 54.8451C39.466 54.9431 39.522 54.9921 39.627 54.9921V54.9851Z" fill="black"/>
<path d="M46.046 56.1611C45.689 56.1611 45.444 55.9581 45.318 55.5591C45.192 55.1601 45.129 54.6631 45.129 54.0751C45.129 53.7531 45.136 53.4451 45.157 53.1371C45.178 52.8361 45.192 52.5771 45.199 52.3741C45.045 52.3531 44.898 52.3251 44.758 52.2831C44.618 52.2411 44.506 52.1921 44.429 52.1431C44.422 52.2131 44.38 52.3461 44.31 52.5561C44.24 52.7661 44.163 53.0041 44.072 53.2771C43.981 53.5501 43.883 53.8161 43.778 54.0751C43.673 54.3341 43.568 54.5511 43.477 54.7191C43.379 54.8871 43.295 54.9711 43.218 54.9711C43.176 54.9711 43.162 54.9431 43.162 54.8871C43.162 54.8101 43.197 54.7051 43.26 54.5651C43.456 54.1661 43.624 53.7601 43.785 53.3471C43.946 52.9341 44.079 52.5001 44.205 52.0591C44.107 52.0241 44.037 51.9471 43.995 51.8491C43.953 51.7511 43.932 51.6321 43.932 51.5061C43.932 51.1561 43.981 50.8691 44.086 50.6521C44.184 50.4281 44.303 50.2601 44.429 50.1551C44.555 50.0501 44.653 49.9871 44.716 49.9871C44.835 49.9871 44.891 50.0851 44.891 50.2741C44.891 50.3721 44.87 50.5191 44.821 50.7151C44.772 50.9111 44.716 51.1141 44.646 51.3241C44.576 51.5341 44.52 51.7021 44.471 51.8211C44.59 51.8981 44.681 51.9401 44.744 51.9401C44.842 51.9401 44.933 51.8771 45.024 51.7581C45.115 51.6391 45.227 51.5131 45.36 51.3941C45.493 51.2751 45.654 51.2121 45.857 51.2121C45.962 51.2121 46.053 51.2261 46.13 51.2471C46.207 51.2751 46.249 51.3101 46.249 51.3731V51.4151C46.151 51.6601 46.081 51.9751 46.032 52.3671C45.983 52.7591 45.962 53.1511 45.962 53.5501C45.962 53.9001 45.983 54.2221 46.018 54.5301C46.053 54.8311 46.116 55.0761 46.2 55.2581C46.284 55.4401 46.382 55.5311 46.494 55.5311C46.606 55.5311 46.718 55.4681 46.83 55.3421C46.935 55.2161 47.033 55.0831 47.11 54.9361C47.187 54.7891 47.25 54.6841 47.278 54.6141C47.481 54.2361 47.607 53.9911 47.656 53.8861C47.705 53.7811 47.768 53.7181 47.845 53.7181C47.873 53.7181 47.887 53.7391 47.887 53.7741C47.887 53.7951 47.88 53.8441 47.859 53.9211C47.74 54.2431 47.6 54.5721 47.432 54.9151C47.264 55.2581 47.061 55.5521 46.83 55.7901C46.599 56.0281 46.34 56.1541 46.046 56.1541V56.1611Z" fill="black"/>
<path d="M53.207 58.3311C52.871 58.3311 52.57 58.1211 52.311 57.7081C52.003 57.2251 51.758 56.6581 51.569 56.0001C51.387 55.3421 51.247 54.6351 51.149 53.8651C50.988 54.1241 50.792 54.4041 50.568 54.6911C50.344 54.9781 50.099 55.2511 49.826 55.5101C49.553 55.7691 49.273 55.9721 48.986 56.1331C48.699 56.2941 48.398 56.3711 48.104 56.3711C47.824 56.3711 47.607 56.3221 47.446 56.2241C47.285 56.1261 47.173 56.0141 47.096 55.8811C47.026 55.7481 46.977 55.6291 46.963 55.5101C46.949 55.3911 46.942 55.3141 46.942 55.2651C46.942 54.9921 47.04 54.6981 47.236 54.3831C47.432 54.0611 47.712 53.7601 48.076 53.4801C48.44 53.1931 48.867 52.9621 49.364 52.7801C49.861 52.5981 50.407 52.5071 50.995 52.5071H51.009C50.988 52.1501 50.974 51.7861 50.967 51.4221C50.953 51.0581 50.953 50.6801 50.953 50.3091C50.953 49.7981 50.967 49.2871 50.995 48.7831C51.023 48.2791 51.072 47.8241 51.149 47.4111C51.219 46.9981 51.324 46.6831 51.443 46.4451C51.499 46.3471 51.59 46.2981 51.702 46.2981C51.954 46.2981 52.178 46.3891 52.381 46.5781C52.584 46.7671 52.745 46.9911 52.871 47.2501C52.997 47.5091 53.06 47.7611 53.06 48.0061C53.06 48.7131 52.934 49.4411 52.682 50.1971C52.43 50.9531 52.136 51.7441 51.8 52.5771V52.6191L52.003 52.6891C52.199 52.7871 52.36 52.9061 52.486 53.0461C52.619 53.1861 52.682 53.3121 52.682 53.4171C52.682 53.4521 52.668 53.4731 52.64 53.4731C52.612 53.4731 52.584 53.4451 52.556 53.4031C52.311 53.1931 52.073 53.0531 51.835 52.9971C51.912 53.8091 52.038 54.5581 52.213 55.2371C52.388 55.9161 52.612 56.5111 52.892 57.0151C53.053 57.3161 53.193 57.5191 53.298 57.6311C53.403 57.7431 53.494 57.7991 53.571 57.7991C53.648 57.7991 53.718 57.7501 53.781 57.6591C53.844 57.5681 53.893 57.5191 53.935 57.5191C53.963 57.5191 53.977 57.5471 53.977 57.6031V57.6591C53.956 57.7081 53.921 57.7851 53.858 57.8901C53.802 57.9951 53.718 58.0931 53.613 58.1841C53.508 58.2751 53.368 58.3241 53.193 58.3241L53.207 58.3311ZM47.943 56.0281C48.181 56.0281 48.454 55.9511 48.748 55.7901C49.042 55.6291 49.336 55.4261 49.63 55.1741C49.924 54.9221 50.197 54.6491 50.456 54.3551C50.715 54.0611 50.925 53.7811 51.1 53.5081L51.044 52.8991C50.792 52.9061 50.512 52.9831 50.197 53.1161C49.882 53.2491 49.567 53.4171 49.238 53.6201C48.916 53.8231 48.615 54.0401 48.349 54.2781C48.076 54.5161 47.859 54.7471 47.691 54.9711C47.523 55.1951 47.439 55.4051 47.439 55.5871C47.439 55.7621 47.53 55.8951 47.712 55.9931C47.754 56.0001 47.789 56.0071 47.831 56.0141C47.866 56.0141 47.908 56.0211 47.95 56.0211L47.943 56.0281ZM51.772 52.0591C51.975 51.5411 52.136 51.0721 52.262 50.6521C52.388 50.2391 52.5 49.7841 52.598 49.3011C52.626 49.1471 52.654 48.9861 52.668 48.8181C52.689 48.6501 52.696 48.4891 52.696 48.3351C52.696 48.0551 52.668 47.8101 52.619 47.5931C52.57 47.3761 52.479 47.2571 52.367 47.2151C52.192 47.3621 52.059 47.6001 51.968 47.9361C51.877 48.2721 51.814 48.6501 51.779 49.0771C51.744 49.5111 51.73 49.9381 51.73 50.3721C51.73 50.9531 51.744 51.5131 51.772 52.0521V52.0591Z" fill="black"/>
<path d="M55.384 56.7C55.055 56.7 54.803 56.595 54.621 56.378C54.439 56.168 54.32 55.895 54.257 55.559C54.194 55.223 54.166 54.887 54.166 54.551C54.166 54.32 54.173 54.096 54.194 53.893C54.215 53.683 54.236 53.501 54.25 53.347C54.299 52.948 54.362 52.57 54.439 52.199C54.516 51.835 54.593 51.52 54.663 51.261C54.733 51.002 54.782 50.827 54.803 50.757C54.838 50.624 54.915 50.554 55.02 50.554C55.125 50.554 55.244 50.624 55.384 50.764C55.524 50.904 55.615 51.016 55.671 51.107C55.895 51.177 56.112 51.254 56.322 51.345C56.532 51.436 56.707 51.534 56.854 51.639C57.001 51.744 57.064 51.863 57.064 51.989C57.064 52.234 56.966 52.472 56.763 52.71C56.56 52.955 56.301 53.172 55.993 53.375C55.685 53.578 55.37 53.753 55.048 53.893C55.02 54.124 55.006 54.355 55.006 54.586C55.006 54.971 55.055 55.307 55.153 55.601C55.251 55.895 55.412 56.035 55.643 56.035C55.846 56.035 56.042 55.965 56.231 55.818C56.42 55.671 56.595 55.489 56.763 55.265C56.931 55.041 57.078 54.817 57.204 54.593C57.337 54.369 57.435 54.173 57.498 54.019C57.519 53.963 57.561 53.935 57.631 53.935C57.666 53.935 57.687 53.977 57.687 54.061C57.687 54.145 57.631 54.313 57.512 54.558C57.393 54.789 57.281 55.013 57.155 55.216C57.036 55.426 56.917 55.608 56.798 55.762C56.637 55.972 56.434 56.182 56.196 56.385C55.958 56.588 55.685 56.686 55.377 56.686L55.384 56.7ZM55.097 53.494C55.433 53.312 55.741 53.088 56 52.836C56.266 52.577 56.399 52.304 56.399 52.003C56.399 51.898 56.322 51.786 56.161 51.674C56 51.562 55.818 51.471 55.601 51.394C55.482 51.702 55.384 52.031 55.307 52.381C55.223 52.731 55.153 53.102 55.097 53.494Z" fill="black"/>
<path d="M58.457 57.8271C58.359 57.8271 58.226 57.7501 58.058 57.6031C57.89 57.4561 57.771 57.26 57.701 57.015C57.659 56.854 57.631 56.6301 57.617 56.3501C57.596 56.0701 57.589 55.7551 57.589 55.4051C57.589 54.8241 57.603 54.2011 57.624 53.5361C57.645 52.8711 57.659 52.2691 57.659 51.7371C57.659 51.5621 57.659 51.401 57.652 51.247C57.645 51.093 57.638 50.96 57.631 50.841C57.61 50.82 57.554 50.806 57.463 50.792C57.372 50.778 57.239 50.7571 57.078 50.7291C57.078 50.7081 57.155 50.666 57.302 50.589C57.449 50.519 57.666 50.4771 57.946 50.4771C58.226 50.4771 58.429 50.5401 58.52 50.6591C58.611 50.7781 58.66 50.883 58.66 50.967V51.0371C58.66 51.0371 58.66 51.0931 58.646 51.1071C58.541 51.6181 58.436 52.22 58.345 52.913C58.247 53.606 58.198 54.334 58.198 55.097C58.198 55.279 58.198 55.4401 58.205 55.5801C58.205 55.7201 58.212 55.8461 58.212 55.9511V56.0841C58.268 55.5451 58.373 55.0271 58.513 54.5371C58.66 54.0471 58.8 53.5151 58.947 52.9341C59.066 52.4301 59.164 52.045 59.241 51.765C59.325 51.492 59.409 51.2961 59.5 51.1841C59.591 51.0721 59.703 51.016 59.829 51.016C60.004 51.016 60.123 51.0861 60.193 51.2331C60.263 51.3801 60.305 51.5761 60.326 51.8281C60.347 52.0801 60.368 52.367 60.382 52.689C60.403 53.011 60.452 53.3611 60.529 53.7251C60.648 54.2781 60.781 54.6771 60.935 54.9291C61.089 55.1811 61.222 55.3071 61.327 55.3071C61.453 55.3071 61.579 55.23 61.705 55.069C61.831 54.908 61.95 54.7261 62.069 54.5091C62.188 54.2991 62.286 54.11 62.377 53.9491C62.468 53.7881 62.545 53.7111 62.601 53.7111C62.629 53.7111 62.643 53.7321 62.643 53.7811C62.643 53.8231 62.629 53.879 62.601 53.97C62.356 54.509 62.153 54.929 61.992 55.223C61.824 55.517 61.6 55.664 61.313 55.664C61.089 55.664 60.865 55.5661 60.648 55.3771C60.529 55.2791 60.417 55.1251 60.305 54.9081C60.193 54.6911 60.088 54.453 59.997 54.194C59.906 53.935 59.808 53.683 59.731 53.445C59.647 53.207 59.577 53.0111 59.521 52.8571C59.465 52.7031 59.423 52.6261 59.402 52.6261C59.381 52.6261 59.353 52.6471 59.311 52.6821C59.269 52.7241 59.234 52.7871 59.22 52.8851C59.059 53.4871 58.926 54.075 58.821 54.663C58.723 55.251 58.646 55.776 58.597 56.245C58.548 56.714 58.527 57.071 58.527 57.3231C58.527 57.449 58.534 57.54 58.548 57.589C58.562 57.638 58.569 57.68 58.569 57.715C58.569 57.785 58.534 57.813 58.471 57.813L58.457 57.8271Z" fill="black"/>
<path d="M61.376 20.2791C59.927 19.7611 59.297 21.9801 60.781 22.4001C62.146 22.8901 62.748 20.7691 61.376 20.2791Z" fill="#BA0909"/>
<path d="M54.383 17.1639C55.629 17.5139 56.084 16.0089 55.006 15.4069C53.76 15.0569 53.144 16.8139 54.383 17.1639Z" fill="#BA0909"/>
<path d="M48.405 10.4371C47.145 10.0871 46.592 12.0401 47.859 12.3971C49.126 12.7541 49.672 10.7941 48.405 10.4371Z" fill="#BA0909"/>
<path d="M53.1231 21.273L53.193 20.692C53.298 19.446 53.4941 18.767 53.9071 17.528C53.1301 17.535 52.3391 18.277 51.5341 20.279C51.2191 19.782 50.974 19.614 50.169 19.46C51.114 17.276 49.5811 14.504 47.6491 13.146C49.1891 15.288 48.9161 17.941 47.5091 19.943C47.4601 20.314 47.7331 20.643 48.1041 20.671C50.1901 20.965 52.1641 21.959 53.6551 23.45C53.7391 23.52 53.844 23.688 54.145 23.835C54.467 23.996 54.8731 23.891 55.0341 23.779C55.6151 23.366 56.0211 23.002 56.6721 22.715C57.5821 22.288 58.604 22.057 59.689 22.05C58.842 21.546 57.617 20.972 54.663 21.623C54.25 21.301 53.7391 21.182 53.1301 21.28L53.1231 21.273ZM54.544 22.778C54.544 22.778 54.5301 22.778 54.5301 22.785C54.4951 22.792 54.509 22.785 54.544 22.778Z" fill="#BA0909"/>
</g>
<defs>
<clipPath id="clip0_1991_545">
<rect width="70" height="70" fill="white"/>
</clipPath>
</defs>
</svg>
